<svg xmlns="http://www.w3.org/2000/svg" viewBox="0 0 32 32" width="32" height="32">
  <rect width="32" height="32" fill="#2C2B27"/>
  <!-- 8 petals -->
  <ellipse cx="16" cy="9.2" rx="2.6" ry="4.2" fill="#F7F4EE" stroke="#2C2B27" strokeWidth="0.8" transform="rotate(0 16 16)"/>
  <ellipse cx="16" cy="9.2" rx="2.6" ry="4.2" fill="#F7F4EE" stroke="#2C2B27" strokeWidth="0.8" transform="rotate(45 16 16)"/>
  <ellipse cx="16" cy="9.2" rx="2.6" ry="4.2" fill="#F7F4EE" stroke="#2C2B27" strokeWidth="0.8" transform="rotate(90 16 16)"/>
  <ellipse cx="16" cy="9.2" rx="2.6" ry="4.2" fill="#F7F4EE" stroke="#2C2B27" strokeWidth="0.8" transform="rotate(135 16 16)"/>
  <ellipse cx="16" cy="9.2" rx="2.6" ry="4.2" fill="#F7F4EE" stroke="#2C2B27" strokeWidth="0.8" transform="rotate(180 16 16)"/>
  <ellipse cx="16" cy="9.2" rx="2.6" ry="4.2" fill="#F7F4EE" stroke="#2C2B27" strokeWidth="0.8" transform="rotate(225 16 16)"/>
  <ellipse cx="16" cy="9.2" rx="2.6" ry="4.2" fill="#F7F4EE" stroke="#2C2B27" strokeWidth="0.8" transform="rotate(270 16 16)"/>
  <ellipse cx="16" cy="9.2" rx="2.6" ry="4.2" fill="#F7F4EE" stroke="#2C2B27" strokeWidth="0.8" transform="rotate(315 16 16)"/>
  <!-- centre -->
  <circle cx="16" cy="16" r="4" fill="#E8C8BE" stroke="#2C2B27" strokeWidth="0.8"/>
</svg>
